<svg id="Flat" height="512" viewBox="0 0 64 64" width="512" xmlns="http://www.w3.org/2000/svg"><g id="Color_copy" data-name="Color copy"><rect fill="#48cae4" height="38" rx="4" width="58" x="3" y="9"/><path d="m61 39v4a4 4 0 0 1 -4 4h-50a4 4 0 0 1 -4-4v-30a4 4 0 0 1 4-4h19v9a21 21 0 0 0 21 21z" fill="#00b4d8"/><path d="m36.515 25.379-13.515-3.379v-13h16v14.438a2 2 0 0 1 -2.485 1.941z" fill="#00b4d8"/><path d="m12 57h40a4 4 0 0 1 4 4 0 0 0 0 1 0 0h-48a0 0 0 0 1 0 0 4 4 0 0 1 4-4z" fill="#e9f1f2"/><path d="m41 47h-18a9.022 9.022 0 0 1 -4.24 7.65l-3.76 2.35h34l-3.76-2.35a9.022 9.022 0 0 1 -4.24-7.65z" fill="#d0d8da"/><path d="m13 7h10v12h-10z" fill="#e9f1f2"/><path d="m13 7a0 0 0 0 1 0 0v12a0 0 0 0 1 0 0 5 5 0 0 1 -5-5v-2a5 5 0 0 1 5-5z" fill="#ef5350"/><path d="m23 16.1v2.9h-10v-3.1a4.712 4.712 0 0 0 1 .1h6.78c.74 0 1.48.03 2.22.1z" fill="#d0d8da"/><path d="m13 15.9v3.1a5 5 0 0 1 -5-5v-2a4.941 4.941 0 0 1 1-3v2a5 5 0 0 0 4 4.9z" fill="#e53935"/><path d="m23 29h-5l-2-10h5z" fill="#d0d8da"/><path d="m23 29h-5l-2-10h5l.4 2h-.16a2 2 0 0 0 -1.96 2.39l.08.39a4 4 0 0 0 3.23 3.16z" fill="#b8bebf"/><path d="m18 15h5a1 1 0 0 0 0-2h-5a1 1 0 0 0 0 2z" fill="#b8bebf"/><path d="m44 14h5a1 1 0 0 0 0-2h-5a1 1 0 0 0 0 2z" fill="#ff7373"/><path d="m44 8a1 1 0 0 0 .446-.105l4-2a1 1 0 1 0 -.894-1.79l-4 2a1 1 0 0 0 .448 1.895z" fill="#ff7373"/><path d="m44.447 18.105a1 1 0 0 0 -.894 1.79l4 2a1 1 0 1 0 .894-1.79z" fill="#ff7373"/><path d="m18 11h5a1 1 0 0 0 0-2h-5a1 1 0 0 0 0 2z" fill="#b8bebf"/><path d="m39 23-16-4v-12l16-4z" fill="#e9f1f2"/><path d="m26 13.7v-7.45l-3 .75v12l16 4v-3.25l-10.28-2.57a3.589 3.589 0 0 1 -2.339-1.874 3.58 3.58 0 0 1 -.381-1.606z" fill="#d0d8da"/><path d="m39 3-5 1.25v17.5l5 1.25z" fill="#ff7373"/><g fill="#ef5350"><path d="m34 18.5v3.25l5 1.25v-3.25z"/><circle cx="10" cy="30" r="3"/><circle cx="10" cy="40" r="3"/></g><circle cx="10" cy="40" fill="#e53935" r="1"/><circle cx="10" cy="30" fill="#e53935" r="1"/><path d="m19 39h4v4h-4z" fill="#ef5350"/><path d="m27 37h4v6h-4z" fill="#ef5350"/><path d="m35 35h4v8h-4z" fill="#ff7373"/><path d="m43 33h4v10h-4z" fill="#ff7373"/><path d="m51 30h4v13h-4z" fill="#ff7373"/><path d="m51 30h2v13h-2z" fill="#ef5350"/><path d="m43 33h2v10h-2z" fill="#ef5350"/><path d="m35 35h2v8h-2z" fill="#ef5350"/><path d="m27 37h2v6h-2z" fill="#e53935"/><path d="m19 39h2v4h-2z" fill="#e53935"/><path d="m39 37.42v5.58h-4v-7.77a20.4 20.4 0 0 0 4 2.19z" fill="#ef5350"/><path d="m47 39v4h-4v-4.39a20.248 20.248 0 0 0 4 .39z" fill="#ef5350"/><path d="m51 39h4v4h-4z" fill="#ef5350"/><path d="m51 39h2v4h-2z" fill="#e53935"/><path d="m45 38.9v4.1h-2v-4.39a16.323 16.323 0 0 0 2 .29z" fill="#e53935"/><path d="m37 36.48v6.52h-2v-7.77a21.611 21.611 0 0 0 2 1.25z" fill="#e53935"/><path d="m41 47h-18a9.022 9.022 0 0 1 -4.24 7.65l-3.76 2.35z" fill="#b8bebf"/><path d="m56 61h-48a4 4 0 0 1 4-4 2.006 2.006 0 0 0 2 2h41.46a3.989 3.989 0 0 1 .54 2z" fill="#d0d8da"/><path d="m57.9 21.561a1 1 0 0 0 -.7-.541l-5-1a1 1 0 0 0 -.392 1.96l2.142.429-15.186 7.591h-7.764a1 1 0 0 0 -.359.066l-13 5a1 1 0 0 0 .718 1.868l12.827-4.934h7.814a1 1 0 0 0 .447-.105l15.317-7.659-.659 1.317a1 1 0 0 0 1.79.894l2-4a1 1 0 0 0 .005-.886z" fill="#ef5350"/><path d="m31.35 32h-.16l-12.83 4.93a.922.922 0 0 1 -.36.07 1 1 0 0 1 -.36-1.93l12.35-4.75a19.956 19.956 0 0 0 1.36 1.68z" fill="#e53935"/></g></svg>