<svg id="Flat" height="512" viewBox="0 0 64 64" width="512" xmlns="http://www.w3.org/2000/svg"><g id="Color_copy" data-name="Color copy"><path d="m37.09 31.59h4v21h-4z" fill="#d0d8da" transform="matrix(.707 -.707 .707 .707 -18.313 39.969)"/><path d="m47.93 48.1-2.83 2.83-14.85-14.85 2.83-2.83 4.68 4.68a19.251 19.251 0 0 1 -1.42 2.24l3.64 3.64a3 3 0 0 0 3.93.27z" fill="#b8bebf"/><circle cx="22" cy="25" fill="#e9f1f2" r="19"/><path d="m39.09 33.3a19 19 0 1 1 -22.18-26.6 19 19 0 0 0 17.09 27.3 18.62 18.62 0 0 0 5.09-.7z" fill="#d0d8da"/><rect fill="#48cae4" height="18" rx="3" transform="matrix(.707 -.707 .707 .707 -22.853 50.929)" width="8" x="46.05" y="44.05"/><path d="m57.12 58.71-1.41 1.41a3.012 3.012 0 0 1 -4.25 0l-8.48-8.48a3 3 0 0 1 -.11-4.12c.04.04.07.08.11.12l7.07 7.07a5 5 0 0 0 7.07 0c.04-.04.07-.08.11-.12a3 3 0 0 1 -.11 4.12z" fill="#00b4d8"/><circle cx="22" cy="25" fill="#ade8f4" r="15"/><path d="m22 10a15 15 0 1 0 15 15 15.005 15.005 0 0 0 -15-15zm10.3 23.91a18.994 18.994 0 0 1 -17.3-18.91 18.708 18.708 0 0 1 .17-2.49 14.957 14.957 0 0 1 18.83 14.49 14.871 14.871 0 0 1 -1.7 6.91z" fill="#48cae4"/><path d="m31.717 18a1.98 1.98 0 0 1 -1.96-1.7l-.757-5.3h4l.677 4.74a1.979 1.979 0 0 1 -1.96 2.26z" fill="#d0d8da"/><path d="m32.419 16.979a2.046 2.046 0 0 1 -1.674-1.767l-.094-.656a1.363 1.363 0 0 1 1.349-1.556c.434 0 .865.021 1.294.059l-.294-2.059h-4l.757 5.3a1.973 1.973 0 0 0 3.761.518 1.976 1.976 0 0 1 -1.099.161z" fill="#b8bebf"/><path d="m28 6h3a0 0 0 0 1 0 0v6a0 0 0 0 1 0 0h-3a3 3 0 0 1 -3-3 3 3 0 0 1 3-3z" fill="#ff7373"/><path d="m32 6h-1v6h1a15 15 0 0 1 9 3v-12a15 15 0 0 1 -9 3z" fill="#e9f1f2"/><path d="m31 9v3h-3a3 3 0 0 1 -2.6-4.5 3 3 0 0 0 2.6 1.5z" fill="#ef5350"/><path d="m41 12v3a14.981 14.981 0 0 0 -9-3h-1v-3h1a14.981 14.981 0 0 1 9 3z" fill="#d0d8da"/><g fill="#ff7373"><path d="m48 10h-3a1 1 0 0 1 0-2h3a1 1 0 0 1 0 2z"/><path d="m45 6a1 1 0 0 1 -.448-1.895l2-1a1 1 0 1 1 .894 1.79l-2 1a1 1 0 0 1 -.446.105z"/><path d="m47 15a1 1 0 0 1 -.446-.105l-2-1a1 1 0 0 1 .894-1.79l2 1a1 1 0 0 1 -.448 1.895z"/><circle cx="22" cy="25" r="9"/></g><path d="m26.84 32.58a8.992 8.992 0 0 1 -11.43-13.7 18.978 18.978 0 0 0 11.43 13.7z" fill="#ef5350"/><path d="m21 25h2a2 2 0 0 1 2 2v2a0 0 0 0 1 0 0h-6a0 0 0 0 1 0 0v-2a2 2 0 0 1 2-2z" fill="#f9dbaf"/><path d="m25 28v1h-6v-2a2 2 0 0 1 1.18-1.82 4 4 0 0 0 3.82 2.82z" fill="#edb88e"/><circle cx="22" cy="23" fill="#f9dbaf" r="2"/><path d="m21.19 29h-2.19v-2a1.841 1.841 0 0 1 .03-.33 17.648 17.648 0 0 0 2.16 2.33z" fill="#da9367"/><path d="m23.82 23.82a2 2 0 1 1 -2.64-2.64 1.891 1.891 0 0 0 -.18.82 2.006 2.006 0 0 0 2 2 1.891 1.891 0 0 0 .82-.18z" fill="#edb88e"/><path d="m47 25h4v4h-4z" fill="#ff7373"/><path d="m51 21h4v8h-4z" fill="#ff7373"/><path d="m55 17h4v12h-4z" fill="#ff7373"/><path d="m55 17h2v12h-2z" fill="#ef5350"/><path d="m51 21h2v8h-2z" fill="#ef5350"/><path d="m47 25h2v4h-2z" fill="#ef5350"/><path d="m23 15.051v-1.051a1 1 0 0 0 -2 0v1.051a10.015 10.015 0 0 0 -8.949 8.949h-1.051a1 1 0 0 0 0 2h1.051a10.015 10.015 0 0 0 8.949 8.949v1.051a1 1 0 0 0 2 0v-1.051a10 10 0 0 0 0-19.9zm-.014 17.882a.988.988 0 0 0 -1.972 0 8.009 8.009 0 0 1 -6.945-6.933h1.931a1 1 0 0 0 0-2h-1.931a8.009 8.009 0 0 1 6.945-6.933.988.988 0 0 0 1.972 0 7.993 7.993 0 0 1 0 15.866z" fill="#e53935"/><path d="m58 34h-12a1 1 0 0 1 -.524-.148l-12.759-7.852h-4.717a1 1 0 0 1 0-2h5a1 1 0 0 1 .524.148l12.759 7.852h11.717a1 1 0 0 1 0 2z" fill="#e53935"/><path d="m32 61h-28a1 1 0 0 1 -1-1v-17a1 1 0 0 1 2 0v16h27a1 1 0 0 1 0 2z" fill="#00b4d8"/><path d="m31 46h-3a1 1 0 0 0 0 2h.586l-2.68 2.68-3.306-2.48a1 1 0 0 0 -1.5.353l-1.463 2.928-3.037-2.281a1 1 0 0 0 -1.5.353l-1.611 3.224-2.178-.726a1 1 0 0 0 -1.023.242l-3 3a1 1 0 1 0 1.414 1.414l2.563-2.563 2.414.8a1 1 0 0 0 1.211-.5l1.463-2.928 3.047 2.284a1 1 0 0 0 1.5-.353l1.463-2.928 3.037 2.281a1 1 0 0 0 1.307-.093l3.293-3.293v.586a1 1 0 0 0 2 0v-3a1 1 0 0 0 -1-1z" fill="#ff7373"/><path d="m25.7 32.08a8.025 8.025 0 0 1 -2.71.85.992.992 0 0 0 -1.98 0 8 8 0 0 1 -6.94-6.93h1.93a1 1 0 0 0 0-2h-1.93a7.881 7.881 0 0 1 1.63-3.89 18.869 18.869 0 0 1 -.51-2.42 9.939 9.939 0 0 0 -3.14 6.31h-1.05a1 1 0 0 0 0 2h1.05a10.012 10.012 0 0 0 8.95 8.95v1.05a1 1 0 0 0 2 0v-1.05a9.935 9.935 0 0 0 4.99-1.94 18.29 18.29 0 0 1 -2.29-.93z" fill="#c62828"/></g></svg>